HIERARCHY
ROOT SpineBase
{
  OFFSET 0.000000 0.000000 0.000000
  CHANNELS 6 Xposition Yposition Zposition Zrotation Xrotation Yrotation
  JOINT SpineMid
  {
    OFFSET -0.000000 31.180817 0.000000
    CHANNELS 3 Zrotation Xrotation Yrotation
    JOINT SpineShoulder
    {
      OFFSET -0.074820 23.300985 -0.589884
      CHANNELS 3 Zrotation Xrotation Yrotation
      JOINT Neck
      {
        OFFSET 0.037601 7.752458 -0.515204
        CHANNELS 3 Zrotation Xrotation Yrotation
        JOINT Head
        {
          OFFSET -5.155952 13.046958 0.053518
          CHANNELS 3 Zrotation Xrotation Yrotation
          End Site
          {
            OFFSET 0 0 0
          }
        }
      }
      JOINT ShoulderLeft
      {
        OFFSET -15.846412 -5.460904 4.290723
        CHANNELS 3 Zrotation Xrotation Yrotation
        JOINT ElbowLeft
        {
          OFFSET -1.472425 -29.086187 1.236419
          CHANNELS 3 Zrotation Xrotation Yrotation
          JOINT WristLeft
          {
            OFFSET -3.480821 -20.863265 -4.917248
            CHANNELS 3 Zrotation Xrotation Yrotation
            JOINT HandLeft
            {
              OFFSET 0.053359 -3.942880 -1.237853
              CHANNELS 3 Zrotation Xrotation Yrotation
              JOINT HandTipLeft
              {
                OFFSET 0.571956 -7.159631 -3.983658
                CHANNELS 3 Zrotation Xrotation Yrotation
                End Site
                {
                  OFFSET 0 0 0
                }
              }
              JOINT ThumbLeft
              {
                OFFSET 2.916473 1.419252 -1.105944
                CHANNELS 3 Zrotation Xrotation Yrotation
                End Site
                {
                  OFFSET 0 0 0
                }
              }
            }
          }
        }
      }
      JOINT ShoulderRight
      {
        OFFSET 14.707960 -1.749814 -7.454743
        CHANNELS 3 Zrotation Xrotation Yrotation
        JOINT ElbowRight
        {
          OFFSET 8.029806 -24.370476 0.774915
          CHANNELS 3 Zrotation Xrotation Yrotation
          JOINT WristRight
          {
            OFFSET 1.019857 -21.586858 -5.093387
            CHANNELS 3 Zrotation Xrotation Yrotation
            JOINT HandRight
            {
              OFFSET -1.926957 -5.920221 -0.481660
              CHANNELS 3 Zrotation Xrotation Yrotation
              JOINT HandTipRight
              {
                OFFSET 0.742944 -4.997447 -0.176833
                CHANNELS 3 Zrotation Xrotation Yrotation
                End Site
                {
                  OFFSET 0 0 0
                }
              }
              JOINT ThumbRight
              {
                OFFSET -2.938688 1.472698 -1.643992
                CHANNELS 3 Zrotation Xrotation Yrotation
                End Site
                {
                  OFFSET 0 0 0
                }
              }
            }
          }
        }
      }
    }
  }
  JOINT HipLeft
  {
    OFFSET -6.467128 0.486069 -1.138584
    CHANNELS 3 Zrotation Xrotation Yrotation
    JOINT KneeLeft
    {
      OFFSET -10.905256 -25.232621 -4.296028
      CHANNELS 3 Zrotation Xrotation Yrotation
      JOINT AnkleLeft
      {
        OFFSET 3.777116 -30.122791 11.546226
        CHANNELS 3 Zrotation Xrotation Yrotation
        JOINT FootLeft
        {
          OFFSET 0.102121 3.861345 -15.532509
          CHANNELS 3 Zrotation Xrotation Yrotation
          End Site
          {
            OFFSET 0 0 0
          }
        }
      }
    }
  }
  JOINT HipRight
  {
    OFFSET 6.956724 1.490346 -5.487968
    CHANNELS 3 Zrotation Xrotation Yrotation
    JOINT KneeRight
    {
      OFFSET 6.241434 -32.473467 3.582325
      CHANNELS 3 Zrotation Xrotation Yrotation
      JOINT AnkleRight
      {
        OFFSET 4.835340 -27.763907 1.114064
        CHANNELS 3 Zrotation Xrotation Yrotation
        JOINT FootRight
        {
          OFFSET -1.357184 -7.526260 -4.007901
          CHANNELS 3 Zrotation Xrotation Yrotation
          End Site
          {
            OFFSET 0 0 0
          }
        }
      }
    }
  }
}
MOTION
Frames: 12
Frame Time: 0.033333
-27.691554 66.273287 350.650370 0.000000 0.000000 17.952541 -0.000000 0.000000 -17.952541 -0.000000 0.000000 0.000000 -0.000000 0.000000 0.000000 0.000000 0.000000 0.000000 -0.000000 0.000000 0.000000 -0.000000 0.000000 0.000000 -0.000000 0.000000 0.000000 -0.000000 0.000000 0.000000 0.000000 0.000000 0.000000 0.000000 0.000000 0.000000 -0.000000 0.000000 0.000000 -0.000000 0.000000 0.000000 -0.000000 0.000000 0.000000 -0.000000 0.000000 0.000000 0.000000 0.000000 0.000000 0.000000 0.000000 0.000000 -0.000000 0.000000 -17.952541 -0.000000 0.000000 0.000000 -0.000000 0.000000 0.000000 0.000000 0.000000 0.000000 -0.000000 0.000000 -17.952541 -0.000000 0.000000 0.000000 -0.000000 0.000000 0.000000 0.000000 0.000000 0.000000
-27.686696 66.306073 350.627302 -0.032245 0.028850 17.937693 0.021792 -0.037378 -17.937678 -0.000000 0.000000 0.000000 -0.000000 0.000000 0.000000 0.000000 0.000000 0.000000 -0.000000 0.000000 0.000000 1.205708 -0.803661 -0.142126 -1.207815 0.800490 0.159020 -0.000000 0.000000 0.000000 0.000000 0.000000 0.000000 0.000000 0.000000 0.000000 -0.000000 0.000000 0.000000 -0.000000 0.000000 0.000000 0.545496 -0.627278 0.163104 2.224014 3.749583 0.103470 0.000000 0.000000 0.000000 0.000000 0.000000 0.000000 1.356440 -1.357247 -17.841037 2.165609 2.052293 1.457890 -3.803666 -6.371446 -0.794682 0.000000 0.000000 0.000000 1.222333 0.033252 -17.730348 -2.268429 -1.494892 -0.462698 -1.337830 1.650978 1.482390 0.000000 0.000000 0.000000
-27.656007 66.325773 350.600316 -0.025955 0.062206 17.929960 0.005544 -0.067175 -17.929942 -0.000000 0.000000 0.000000 -0.000000 0.000000 0.000000 0.000000 0.000000 0.000000 -0.000000 0.000000 0.000000 2.038163 -1.365612 -0.229608 -2.769178 1.962943 0.533543 1.449049 0.266259 -0.560496 0.000000 0.000000 0.000000 0.000000 0.000000 0.000000 -0.000000 0.000000 0.000000 -0.000000 0.000000 0.000000 1.104104 -1.184127 0.308236 3.456672 6.623326 0.052840 0.000000 0.000000 0.000000 0.000000 0.000000 0.000000 2.220064 -2.293614 -17.736380 4.806812 3.807920 2.746641 -7.441397 -11.490385 -0.672375 0.000000 0.000000 0.000000 2.227534 0.062942 -17.546786 -4.186620 -2.706341 -0.882719 -2.613277 3.250821 2.816067 0.000000 0.000000 0.000000
-27.599488 66.332387 350.569413 0.018863 0.100055 17.929368 -0.048749 -0.089390 -17.929422 -0.000000 0.000000 0.000000 -0.000000 0.000000 0.000000 0.000000 0.000000 0.000000 -0.000000 0.000000 0.000000 2.526520 -1.702547 -0.275931 -4.010562 2.855939 0.884056 2.557177 -0.233032 -0.974335 0.000000 0.000000 0.000000 0.000000 0.000000 0.000000 -0.000000 0.000000 0.000000 -0.000000 0.000000 0.000000 1.676057 -1.671232 0.434663 3.698399 8.645803 -0.019132 0.000000 0.000000 0.000000 0.000000 0.000000 0.000000 2.594606 -2.816848 -17.659459 7.774318 5.201658 3.862289 -10.521403 -15.122642 0.645752 0.000000 0.000000 0.000000 2.985145 0.084686 -17.407251 -5.741927 -3.651178 -1.239723 -3.663654 4.838119 3.904187 0.000000 0.000000 0.000000
-27.517137 66.325916 350.534593 0.102175 0.142383 17.935905 -0.141056 -0.103998 -17.936160 -0.000000 0.000000 0.000000 -0.000000 0.000000 0.000000 0.000000 0.000000 0.000000 -0.000000 0.000000 0.000000 2.691652 -1.827146 -0.288932 -5.215599 3.730285 1.302096 3.937788 -1.203258 -1.467396 0.000000 0.000000 0.000000 0.000000 0.000000 0.000000 -0.000000 0.000000 0.000000 -0.000000 0.000000 0.000000 2.261707 -2.089170 0.541564 2.916282 9.830275 -0.025301 0.000000 0.000000 0.000000 0.000000 0.000000 0.000000 2.481686 -2.931844 -17.621080 10.942397 6.179578 4.825321 -12.697002 -17.030160 3.445778 0.000000 0.000000 0.000000 3.470146 0.094845 -17.316052 -6.922107 -4.342745 -1.517374 -4.351470 6.432968 4.659424 0.000000 0.000000 0.000000
-27.408956 66.306358 350.495855 0.223917 0.189169 17.949521 -0.271317 -0.110954 -17.950153 -0.000000 0.000000 0.000000 -0.000000 0.000000 0.000000 0.000000 0.000000 0.000000 -0.000000 0.000000 0.000000 2.546969 -1.748048 -0.271849 -6.462025 4.635324 1.814533 5.639380 -2.708770 -2.036870 0.000000 0.000000 0.000000 0.000000 0.000000 0.000000 -0.000000 0.000000 0.000000 -0.806673 0.215099 0.201990 3.659449 -2.665950 0.440006 1.037730 10.153183 0.077938 0.000000 0.000000 0.000000 0.000000 0.000000 0.000000 1.880094 -2.638769 -17.622417 14.225161 6.707218 5.673754 -13.788921 -16.900431 7.912614 0.000000 0.000000 0.000000 3.664511 0.090920 -17.276236 -7.718079 -4.791493 -1.703596 -4.580050 8.030008 5.015970 0.000000 0.000000 0.000000
-27.244086 66.287680 350.430989 0.413989 0.269152 17.933500 -0.476751 -0.128597 -17.935008 -0.000000 0.000000 0.000000 0.851434 0.179096 0.065759 0.000000 0.000000 0.000000 -0.000000 0.000000 0.000000 2.383748 -1.968965 -0.193860 -8.624331 6.256100 2.702579 8.907875 -6.161128 -3.217572 0.000000 0.000000 0.000000 0.000000 0.000000 0.000000 -0.000000 0.000000 0.000000 -0.974601 0.321168 0.247802 4.870179 -4.559931 0.996398 -7.690102 10.280522 0.586913 0.000000 0.000000 0.000000 0.000000 0.000000 0.000000 1.182428 -2.486615 -17.536149 16.905464 6.046773 6.266862 -13.363479 -10.024750 15.465940 0.000000 0.000000 0.000000 3.435917 0.017530 -17.270228 -8.373426 -5.292214 -1.870000 -0.743632 14.002469 2.415798 0.000000 0.000000 0.000000
-27.047418 66.251477 350.366641 0.625502 0.339645 17.907541 -0.699634 -0.130843 -17.910194 -0.000000 0.000000 0.000000 1.061870 0.003533 -0.002981 0.000000 0.000000 0.000000 -0.000000 0.000000 0.000000 1.871219 -1.983383 -0.078264 -11.255645 9.051086 4.010040 14.151059 -9.067727 -4.620814 0.000000 0.000000 0.000000 0.000000 0.000000 0.000000 0.726916 -0.571890 -0.161328 -0.728559 0.569795 0.168579 4.515647 -4.310084 1.225408 -10.328960 3.619219 -0.389919 0.000000 0.000000 0.000000 0.000000 0.000000 0.000000 -0.248438 -1.963080 -17.374106 18.258904 6.004123 6.138026 -12.340644 2.533589 23.334007 0.000000 0.000000 0.000000 2.369944 -0.012142 -17.386919 -7.267130 -4.545535 -1.557479 -1.868525 11.407656 3.147259 0.000000 0.000000 0.000000
-26.865036 66.210207 350.283988 0.828193 0.428173 17.804176 -0.919449 -0.154397 -17.808509 -0.000000 0.000000 0.000000 2.172589 -0.587128 -0.228101 0.000000 0.000000 0.000000 -0.000000 0.000000 0.000000 0.545484 -1.014464 0.045652 -13.830866 11.294222 5.570630 17.666946 -15.961048 -5.055771 0.000000 0.000000 0.000000 0.000000 0.000000 0.000000 1.200654 -0.476554 -0.113441 -1.201636 0.474071 0.123406 5.549729 -1.576999 0.140265 -10.329095 -2.215768 -0.412088 0.000000 0.000000 0.000000 0.000000 0.000000 0.000000 -2.644742 -0.162013 -17.305499 24.292877 4.862315 7.659739 -14.675834 7.108429 29.474924 0.000000 0.000000 0.000000 1.907152 -0.033018 -17.324347 -7.602461 -4.728328 -1.615237 1.287658 13.029079 1.356914 0.000000 0.000000 0.000000
-26.761548 66.131811 350.254492 1.011074 0.470634 17.611718 -1.106079 -0.142600 -17.617247 -0.000000 0.000000 0.000000 4.013946 -1.490967 -0.545926 0.000000 0.000000 0.000000 -0.823085 -0.193279 -0.026581 -0.473951 1.166915 0.181698 -15.823225 12.288120 6.940805 19.257568 -19.308177 -4.608687 0.000000 0.000000 0.000000 0.000000 0.000000 0.000000 2.152858 -0.016345 0.062994 -2.152839 0.018700 -0.062336 5.006792 -0.554262 -0.205976 -10.689621 0.503307 0.507237 0.000000 0.000000 0.000000 0.000000 0.000000 0.000000 -5.583905 2.732291 -17.247121 29.947055 5.072481 9.401814 -15.688074 3.793524 33.640191 0.000000 0.000000 0.000000 1.551984 -0.067944 -17.168521 -7.446851 -4.569981 -1.553452 -0.829443 13.054460 2.684870 0.000000 0.000000 0.000000
-26.676607 65.989942 350.281969 1.239653 0.439290 17.883355 -1.314646 -0.037320 -17.888536 -0.000000 0.000000 0.000000 6.458995 -2.525383 -0.862976 0.000000 0.000000 0.000000 -1.207834 -0.878980 -0.016100 -1.929383 4.462164 0.281654 -16.242183 9.308842 7.045757 21.885845 -19.818831 -5.217205 0.000000 0.000000 0.000000 0.000000 0.000000 0.000000 3.766906 0.588863 0.291372 -7.883532 1.746235 0.791955 9.199984 -1.334159 -1.617632 -13.139867 3.273712 1.855145 0.000000 0.000000 0.000000 0.000000 0.000000 0.000000 -9.045309 6.668605 -17.580536 34.667477 2.573889 11.353829 -15.537576 -0.188787 32.843875 0.000000 0.000000 0.000000 1.278483 -0.040664 -17.463310 -7.010040 -4.331513 -1.454646 -1.527192 13.481078 2.762567 0.000000 0.000000 0.000000
-26.614255 65.818869 350.411165 1.490403 0.258271 18.489145 -0.701110 -0.191637 -18.467815 0.237136 -0.110729 0.054715 7.742361 -3.359609 -1.258653 0.000000 0.000000 0.000000 -2.684080 -1.753019 -0.058105 -3.757648 9.286866 0.487450 -13.943251 5.672827 6.127584 19.645903 -18.332627 -4.548401 0.000000 0.000000 0.000000 0.000000 0.000000 0.000000 5.600337 1.783599 0.515076 -15.492250 3.894385 1.710369 10.990442 -3.644474 -2.546357 -10.174306 14.590947 4.468070 0.000000 0.000000 0.000000 0.000000 0.000000 0.000000 -12.475431 11.433911 -18.103985 38.257312 -0.774847 13.320931 -15.255513 -6.823393 26.460227 0.000000 0.000000 0.000000 0.974881 -0.047430 -18.126176 -7.570855 -4.001629 -1.407044 4.068643 18.063177 -1.206171 0.000000 0.000000 0.000000
